<svg width="252" height="252" viewBox="0 0 252 252" fill="none" xmlns="http://www.w3.org/2000/svg">
<path d="M137.017 78.9253C129.459 96.3297 125.8 126.2 125.8 126.2C125.8 126.2 157.247 121.997 175.479 113.781C194.036 105.417 204.504 99.0567 218.347 84.1335C230.392 71.1476 235.718 62.0824 242.385 45.6725C249.13 29.0691 252 0.80127 252 0.80127C252 0.80127 222.631 2.96067 205.526 10.0159C187.916 17.2799 178.57 23.8263 165.062 37.2591C151.154 51.0897 144.83 60.9343 137.017 78.9253Z" fill="#033C8B"/>
<path d="M11.2178 203.924C3.65966 221.328 0 251.199 0 251.199C0 251.199 31.4469 246.996 49.6788 238.779C68.236 230.416 78.7046 224.055 92.5469 209.132C104.592 196.146 109.919 187.081 116.585 170.671C123.33 154.068 126.2 125.8 126.2 125.8C126.2 125.8 96.831 127.959 79.7265 135.014C62.1158 142.278 52.7702 148.825 39.2623 162.258C25.3545 176.088 19.0306 185.933 11.2178 203.924Z" fill="#033C8B"/>
<path d="M173.475 136.216C156.071 128.658 126.2 124.998 126.2 124.998C126.2 124.998 130.403 156.445 138.62 174.677C146.983 193.234 153.344 203.703 168.267 217.545C181.253 229.591 190.318 234.917 206.728 241.583C223.331 248.328 251.599 251.199 251.599 251.199C251.599 251.199 249.44 221.829 242.385 204.725C235.121 187.114 228.574 177.768 215.141 164.261C201.311 150.353 191.466 144.029 173.475 136.216Z" fill="#033C8B"/>
<path d="M47.6757 11.2178C30.2713 3.65966 0.400665 0 0.400665 0C0.400665 0 4.60382 31.4469 12.8204 49.6788C21.1835 68.236 27.5443 78.7046 42.4674 92.5469C55.4533 104.592 64.5186 109.919 80.9285 116.585C97.5318 123.33 125.8 126.2 125.8 126.2C125.8 126.2 123.64 96.831 116.585 79.7265C109.321 62.1158 102.775 52.7702 89.3418 39.2623C75.5112 25.3545 65.6666 19.0306 47.6757 11.2178Z" fill="#033C8B"/>
</svg>
